<svg width="11" height="10" viewBox="0 0 11 10" fill="none" xmlns="http://www.w3.org/2000/svg">
<path d="M3.98168 0.243486C4.29668 0.253065 4.60168 0.308065 4.89718 0.408565H4.92668C4.94668 0.418065 4.96168 0.428565 4.97168 0.438065C5.08218 0.473565 5.18668 0.513565 5.28668 0.568565L5.47668 0.653565C5.55168 0.693565 5.64168 0.768065 5.69168 0.798565C5.74168 0.828065 5.79668 0.858565 5.84168 0.893065C6.39718 0.468565 7.07168 0.238565 7.76668 0.243486C8.08218 0.243486 8.39718 0.288065 8.69668 0.388565C10.5422 0.988565 11.2072 3.01357 10.6517 4.78357C10.3367 5.68807 9.82168 6.51357 9.14718 7.18807C8.18168 8.12307 7.12218 8.95306 5.98168 9.66807L5.85668 9.74357L5.72668 9.66306C4.58218 8.95306 3.51668 8.12307 2.54218 7.18307C1.87218 6.50857 1.35668 5.68807 1.03668 4.78357C0.471683 3.01357 1.13668 0.988565 3.00218 0.378065C3.14718 0.328065 3.29668 0.293065 3.44668 0.273565H3.50668C3.64718 0.253065 3.78668 0.243486 3.92668 0.243486H3.98168ZM8.43668 1.82357C8.23168 1.75307 8.00668 1.86357 7.93168 2.07357C7.86168 2.28357 7.97168 2.51357 8.18168 2.58807C8.50218 2.70807 8.71668 3.02357 8.71668 3.37307V3.38857C8.70718 3.50307 8.74168 3.61357 8.81168 3.69857C8.88168 3.78357 8.98668 3.83307 9.09668 3.84357C9.30168 3.83807 9.47668 3.67357 9.49168 3.46307V3.40357C9.50668 2.70307 9.08218 2.06857 8.43668 1.82357Z" fill="#0F2447" fill-opacity="0.5"/>
</svg>
